<svg id="Calque_1" data-name="Calque 1" xmlns="http://www.w3.org/2000/svg" viewBox="0 0 328.7 100.22"><defs><style>.cls-1{fill:#007dc5;}.cls-2{fill:#fd0;}.cls-3{isolation:isolate;}.cls-4{fill:#1c75bc;}</style></defs><title>LOGO 18h39 UNE IDEE CASTO V3</title><path class="cls-1" d="M299.3,13.2c7.3,0,13.3,4.6,13.3,10.4S306.6,34,299.3,34s-13.2-4.7-13.2-10.4,5.9-10.4,13.2-10.4m14.1,25.9c0,11.1-7.4,19.8-17.9,19.8-6.3,0-10.4-1.9-14.1-5.4l-6.9,11.4c5.1,4.4,12.5,7.2,21,7.2,21,0,33.2-15,33.2-36.1,0-19.7-9-36-30.7-36-16.2,0-27.3,10.4-27.3,24,0,14.9,11.5,22.7,24.3,22.7,12.2,0,18.4-7.6,18.4-7.6M240.1,72.2c17.1,0,28-8.5,28-20.5,0-10.5-9.4-16-16.6-16.7,8-1.4,15.6-7.1,15.6-15.9,0-11.6-10.3-18.9-26.9-18.9-12.5,0-21.5,4.7-27.2,11.1l7.5,9.3a26,26,0,0,1,18.2-7.2c7.3,0,13.2,2.7,13.2,8.3,0,5.1-5.3,7.4-13.2,7.4-2.7,0-7.6,0-8.9-.1V42.4c1-.1,5.9-0.2,8.9-0.2,9.9,0,14.2,2.5,14.2,8.1,0,5.2-4.7,8.9-13.4,8.9-6.9,0-14.8-2.9-19.6-8l-8,9.9c5.4,6.2,15.3,11.1,28.2,11.1M208.5,71V35.3c0-9.8-5.2-16.1-16.7-16.1-8.3,0-13.1,2.7-18,9.9V1.2H160.3V71h13.5V45.1c0-9.6,6.4-14.1,11.7-14.1,5.8,0,9.5,2.4,9.5,9.4V71h13.5ZM127.1,60.4c-7.3,0-12.1-4.2-12.1-9.3s4.8-9.4,12.1-9.4,12.1,4.2,12.1,9.4-4.9,9.3-12.1,9.3M127,11.2c6.7,0,9.9,3.9,9.9,8.6s-3.2,8.5-9.9,8.5-9.8-3.8-9.8-8.5,3.2-8.6,9.8-8.6M140.4,35c7.9-2.7,12-9.2,12-16.4,0-11.2-12.2-18.4-25.3-18.4s-25.3,7-25.3,18.4A17.12,17.12,0,0,0,113.7,35c-8.5,2.9-14.1,9.4-14.1,17.9,0,13,12.6,19.4,27.5,19.4s27.5-6.4,27.5-19.4c0-8.5-5.7-15-14.2-17.9M93.3,71V1.2H80.1l-22.4,22,8.6,8.9L78.1,20.3V71H93.3Z" transform="translate(0 0)"/><path class="cls-2" d="M0,11.9H24.3a19.8,19.8,0,0,1,0,39.6H0" transform="translate(0 0)"/><g class="cls-3"><path class="cls-4" d="M59.49,94.59v-7h2.73v7.4a2.89,2.89,0,1,0,5.78,0v-7.4h2.73v7A5.62,5.62,0,1,1,59.49,94.59Z" transform="translate(0 0)"/><path class="cls-4" d="M82.81,99.92V92.18c0-1.95-1-2.56-2.55-2.56A3.72,3.72,0,0,0,77,93.48v6.43H74.3V87.54H77v1.92a4.87,4.87,0,0,1,4.46-2.23c2.7,0,4.05,1.43,4.05,4v8.71H82.81Z" transform="translate(0 0)"/><path class="cls-4" d="M88.33,93.72a6.3,6.3,0,0,1,6.37-6.48c3.77,0,6.14,2.82,6.14,6.71v0.67H91.19a3.77,3.77,0,0,0,4,3.41,5.35,5.35,0,0,0,3.59-1.38L100,98.4a7.52,7.52,0,0,1-5.1,1.82A6.25,6.25,0,0,1,88.33,93.72Zm6.35-4.28a3.41,3.41,0,0,0-3.52,3.25h7.06A3.34,3.34,0,0,0,94.68,89.44Z" transform="translate(0 0)"/><path class="cls-4" d="M109.89,84.36A1.69,1.69,0,1,1,111.57,86,1.68,1.68,0,0,1,109.89,84.36Zm0.31,15.55V87.54h2.73V99.92H110.2Z" transform="translate(0 0)"/><path class="cls-4" d="M128.52,82.83V99.92h-2.73V98a4.93,4.93,0,0,1-4.05,2.23c-3.52,0-6-2.82-6-6.51s2.5-6.48,6-6.48a4.8,4.8,0,0,1,4.05,2.23V82.83h2.73Zm-2.73,10.89c0-2.18-1.27-4.1-3.62-4.1s-3.62,1.92-3.62,4.1,1.3,4.12,3.62,4.12S125.79,95.92,125.79,93.72Z" transform="translate(0 0)"/><path class="cls-4" d="M131.32,93.72a6.3,6.3,0,0,1,6.37-6.48c3.77,0,6.14,2.82,6.14,6.71v0.67h-9.66a3.77,3.77,0,0,0,4,3.41,5.35,5.35,0,0,0,3.59-1.38L143,98.4a7.52,7.52,0,0,1-5.1,1.82A6.25,6.25,0,0,1,131.32,93.72Zm6.34-4.28a3.41,3.41,0,0,0-3.52,3.25h7.06A3.34,3.34,0,0,0,137.66,89.44Zm1.81-6.17a1.18,1.18,0,0,1-.31.77l-1.89,1.9a1.18,1.18,0,0,1-.79.31,1.14,1.14,0,0,1-.71-0.28,1.16,1.16,0,0,1-.33-0.77,1.4,1.4,0,0,1,.33-0.77l1.89-1.92a1,1,0,0,1,.74-0.28,1,1,0,0,1,.76.31A1.12,1.12,0,0,1,139.47,83.26Z" transform="translate(0 0)"/><path class="cls-4" d="M145.79,93.72a6.3,6.3,0,0,1,6.37-6.48c3.77,0,6.14,2.82,6.14,6.71v0.67h-9.66a3.77,3.77,0,0,0,4,3.41,5.35,5.35,0,0,0,3.59-1.38l1.25,1.77a7.52,7.52,0,0,1-5.1,1.82A6.25,6.25,0,0,1,145.79,93.72Zm6.35-4.28a3.41,3.41,0,0,0-3.52,3.25h7.06A3.34,3.34,0,0,0,152.13,89.44Z" transform="translate(0 0)"/><path class="cls-4" d="M179.7,82.83V99.92H177V98a4.93,4.93,0,0,1-4.05,2.23c-3.52,0-6-2.82-6-6.51s2.5-6.48,6-6.48A4.8,4.8,0,0,1,177,89.46V82.83h2.73ZM177,93.72c0-2.18-1.27-4.1-3.62-4.1s-3.62,1.92-3.62,4.1,1.3,4.12,3.62,4.12S177,95.92,177,93.72Z" transform="translate(0 0)"/><path class="cls-4" d="M182.5,93.72a6.3,6.3,0,0,1,6.37-6.48c3.77,0,6.14,2.82,6.14,6.71v0.67h-9.66a3.77,3.77,0,0,0,4,3.41,5.35,5.35,0,0,0,3.59-1.38l1.25,1.77a7.52,7.52,0,0,1-5.1,1.82A6.25,6.25,0,0,1,182.5,93.72Zm6.35-4.28a3.41,3.41,0,0,0-3.52,3.25h7.06A3.34,3.34,0,0,0,188.85,89.44Z" transform="translate(0 0)"/><path class="cls-4" d="M203.63,93.72a6.25,6.25,0,0,1,6.47-6.48,5.56,5.56,0,0,1,4.79,2.2l-1.78,1.61a3.32,3.32,0,0,0-2.88-1.43,4.12,4.12,0,0,0,0,8.22,3.36,3.36,0,0,0,2.88-1.49L214.89,98a5.62,5.62,0,0,1-4.79,2.2A6.27,6.27,0,0,1,203.63,93.72Z" transform="translate(0 0)"/><path class="cls-4" d="M229.36,87.54V99.92h-2.73V98a4.93,4.93,0,0,1-4.05,2.23c-3.52,0-6-2.82-6-6.51s2.5-6.48,6-6.48a4.8,4.8,0,0,1,4.05,2.23V87.54h2.73Zm-2.73,6.17c0-2.18-1.27-4.1-3.62-4.1s-3.62,1.92-3.62,4.1,1.3,4.12,3.62,4.12S226.63,95.92,226.63,93.72Z" transform="translate(0 0)"/><path class="cls-4" d="M231.86,98.28l1.22-1.92a6.58,6.58,0,0,0,4.26,1.72c1.63,0,2.5-.67,2.5-1.64,0-2.43-7.59-.69-7.59-5.46,0-2,1.76-3.74,4.94-3.74A7.17,7.17,0,0,1,242,89l-1.15,1.9a5.09,5.09,0,0,0-3.7-1.49c-1.43,0-2.32.67-2.32,1.54,0,2.18,7.59.54,7.59,5.46,0,2.2-1.86,3.87-5.22,3.87A7.64,7.64,0,0,1,231.86,98.28Z" transform="translate(0 0)"/><path class="cls-4" d="M248.44,89.87v5.07a2.81,2.81,0,0,0,2.88,2.89v2.38a5.41,5.41,0,0,1-5.61-5.64V89.87h-2.09V87.54h2.09V84.16h2.73v3.38h2.88v2.33h-2.88Z" transform="translate(0 0)"/><path class="cls-4" d="M252.7,93.72a6.45,6.45,0,1,1,6.45,6.51A6.21,6.21,0,0,1,252.7,93.72Zm10.07,0c0-2.18-1.27-4.1-3.62-4.1s-3.62,1.92-3.62,4.1,1.3,4.12,3.62,4.12S262.76,95.92,262.76,93.72Z" transform="translate(0 0)"/><path class="cls-4" d="M274.84,90.1a3.11,3.11,0,0,0-.48,0,3.2,3.2,0,0,0-3.24,3.41v6.43h-2.73V87.54h2.73v1.92a4.51,4.51,0,0,1,3.72-2.18V90.1Z" transform="translate(0 0)"/><path class="cls-4" d="M289.47,87.54V99.92h-2.73V98a4.93,4.93,0,0,1-4.05,2.23c-3.52,0-6-2.82-6-6.51s2.5-6.48,6-6.48a4.8,4.8,0,0,1,4.05,2.23V87.54h2.73Zm-2.73,6.17c0-2.18-1.27-4.1-3.62-4.1s-3.62,1.92-3.62,4.1,1.3,4.12,3.62,4.12S286.74,95.92,286.74,93.72Z" transform="translate(0 0)"/><path class="cls-4" d="M301.54,99.92V92.18c0-1.95-1-2.56-2.55-2.56a3.72,3.72,0,0,0-3.24,3.87v6.43H293V87.54h2.73v1.92a4.88,4.88,0,0,1,4.46-2.23c2.14,0,3.44.92,3.87,2.56a4.83,4.83,0,0,1,4.64-2.56c2.7,0,4.05,1.43,4.05,4v8.71h-2.73V92.18c0-1.95-1-2.56-2.55-2.56a3.68,3.68,0,0,0-3.24,3.51v6.79h-2.73Z" transform="translate(0 0)"/><path class="cls-4" d="M328.37,87.54V99.92h-2.73V98a4.93,4.93,0,0,1-4.05,2.23c-3.52,0-6-2.82-6-6.51s2.5-6.48,6-6.48a4.8,4.8,0,0,1,4.05,2.23V87.54h2.73Zm-2.73,6.17c0-2.18-1.27-4.1-3.62-4.1s-3.62,1.92-3.62,4.1,1.3,4.12,3.62,4.12S325.65,95.92,325.65,93.72Z" transform="translate(0 0)"/></g></svg>