<svg id="Calque_1" data-name="Calque 1" xmlns="http://www.w3.org/2000/svg" viewBox="0 0 258.94 52.61"><defs><style>.cls-1{fill-rule:evenodd;}</style></defs><title>Maddynesslogo</title><polygon class="cls-1" points="46.19 40.54 36.65 40.54 36.65 9.57 23.86 42.15 11.05 10.3 11.05 40.54 10.41 40.54 10.41 8.2 20.46 8.2 28.46 28.61 36.55 8.2 46.19 8.2 46.19 40.54"/><path class="cls-1" d="M63.67,26.71q-1.39.49-2.08.76a5.12,5.12,0,0,0-1.38.81,4.74,4.74,0,0,0-1.73,2,7.49,7.49,0,0,0-.54,3,6.31,6.31,0,0,0,.73,3.34,2.33,2.33,0,0,0,2.09,1.16,2.59,2.59,0,0,0,2.13-1,4,4,0,0,0,.78-2.5ZM57.4,19.2a11.65,11.65,0,0,0-.57,2.42l-.19,1.47A5.82,5.82,0,0,1,55,26.74a4.68,4.68,0,0,1-3.41,1.35,3.26,3.26,0,0,1-3.39-3.41q0-3.53,5.61-6.11A32.38,32.38,0,0,1,60,16.41a30.31,30.31,0,0,1,3.67-.63,21.43,21.43,0,0,1,2.28-.13,6.75,6.75,0,0,1,4.4,1.3A4.73,4.73,0,0,1,71.84,19a10.25,10.25,0,0,1,.4,2.83V36.45c0,2.51.8,3.44.8,3.44l-.8.43a8.35,8.35,0,0,1-3.69.9q-3.93,0-4.83-4.66h0a12.74,12.74,0,0,1-1.47,1.79,7.7,7.7,0,0,1-1.45,1.16A10.08,10.08,0,0,1,55,41.18a8,8,0,0,1-5-1.47A4.53,4.53,0,0,1,48,35.9q0-3.07,3.39-5a61.09,61.09,0,0,1,12.24-4.74V22.35a17.12,17.12,0,0,0-.32-3.54,2.56,2.56,0,0,0-2.54-1.9,3.49,3.49,0,0,0-1.33.26,3.88,3.88,0,0,0-1.13.62A3.2,3.2,0,0,0,57.4,19.2Z"/><path class="cls-1" d="M89.2,17a2.36,2.36,0,0,0-1.8-.74q-2.32,0-3.53,3.13a27.51,27.51,0,0,0-1.18,9.19q0,5.09,1,7.34a3.34,3.34,0,0,0,3.27,2.23,3,3,0,0,0,1.47-.33,6.81,6.81,0,0,0,1.49-1.33V18.89A2.75,2.75,0,0,0,89.2,17ZM95.36,5q.68-.19,1.37-.43T98.41,4V38.48l-2.24.68Q95,39.52,93.7,40l-2.88.93-.93.29V37.29a12.57,12.57,0,0,1-3.6,3,8.25,8.25,0,0,1-3.84.93,7.34,7.34,0,0,1-3.5-.86A8.7,8.7,0,0,1,76.13,38a10.86,10.86,0,0,1-1.84-3.58,14.48,14.48,0,0,1-.67-4.48,15,15,0,0,1,1-5.59,14.38,14.38,0,0,1,2.81-4.55,13.16,13.16,0,0,1,4.17-3,12.22,12.22,0,0,1,5.19-1.12,7.61,7.61,0,0,1,1.45.12,10,10,0,0,1,1.61.47V6.51l.48-.11q.78-.19,1.8-.48l1.78-.52Z"/><path class="cls-1" d="M109.36,28.56q0,5.09,1,7.34a3.34,3.34,0,0,0,3.27,2.23,3,3,0,0,0,1.47-.33,6.81,6.81,0,0,0,1.49-1.33V18.89a2.75,2.75,0,0,0-.68-1.91,2.36,2.36,0,0,0-1.8-.74q-2.32,0-3.53,3.13A27.51,27.51,0,0,0,109.36,28.56ZM117,6.4q.78-.19,1.8-.48l1.78-.52L122,5q.68-.19,1.37-.43T125.07,4V38.48l-2.24.68q-1.19.36-2.47.81l-2.88.93-.93.29V37.29a12.57,12.57,0,0,1-3.6,3,8.25,8.25,0,0,1-3.84.93,7.34,7.34,0,0,1-3.5-.86A8.71,8.71,0,0,1,102.79,38a10.86,10.86,0,0,1-1.84-3.58,14.48,14.48,0,0,1-.67-4.48,15,15,0,0,1,1-5.59,14.38,14.38,0,0,1,2.81-4.55,13.16,13.16,0,0,1,4.17-3,12.22,12.22,0,0,1,5.19-1.12,7.61,7.61,0,0,1,1.45.12,10,10,0,0,1,1.61.47V6.51Z"/><path class="cls-1" d="M138.95,21.64q.15.35.35.72l4.52,9.16q.9-1.76,1.52-3.11l6-12.12h.73L138.56,43.45A16.4,16.4,0,0,1,134.63,49a7.12,7.12,0,0,1-4.71,1.76,6.09,6.09,0,0,1-4.1-1.35,4.51,4.51,0,0,1-1.57-3.55,4,4,0,0,1,1.21-3,4.19,4.19,0,0,1,3.06-1.18,4.1,4.1,0,0,1,2.13.52A6.45,6.45,0,0,1,132.5,44a5.45,5.45,0,0,1,.38.48,3.61,3.61,0,0,0,.3.36,2.26,2.26,0,0,0,1.68.87,2.68,2.68,0,0,0,1.9-.85,10.78,10.78,0,0,0,1.85-2.8l.54-1.07L127,16.29h9.32Z"/><path d="M175.53,19.63a4.7,4.7,0,0,0-.87-2,4.53,4.53,0,0,0-2-1.47,7.75,7.75,0,0,0-2.94-.52,10.57,10.57,0,0,0-2.28.23l-.26.06a8.65,8.65,0,0,0-1.84.72,13.64,13.64,0,0,0-2.16,1.39,23.9,23.9,0,0,0-2.35,2.2V15.65l-1.94.67-1.52.49-1.35.45-1.52.42-1.59.5-.68.18V40.54h8.59V21.06a5.65,5.65,0,0,1,3.63-1.76,2.7,2.7,0,0,1,1.33.36,2,2,0,0,1,.87.87,3,3,0,0,1,.29.69,5.74,5.74,0,0,1,.14.94q.05.59.07,1.54c0,.18,0,.37,0,.58V40.54h8.6V22A14.27,14.27,0,0,0,175.53,19.63Z"/><path class="cls-1" d="M190.26,15.65a13.06,13.06,0,0,1,4.47.74,11,11,0,0,1,3.58,2.08,10.78,10.78,0,0,1,2.56,3.3,13,13,0,0,1,1.27,4.33H186.09q.05,9.07,8.1,9.07a8.82,8.82,0,0,0,5.19-1.49,5.91,5.91,0,0,0,1.31-1.12,13.82,13.82,0,0,0,1.23-1.65l.42.19q-.42,1.16-.78,2a14.26,14.26,0,0,1-.67,1.42q-.36.64-.75,1.23l-1,1.26a11.51,11.51,0,0,1-4.07,3.13,12.34,12.34,0,0,1-5.23,1.09,13.32,13.32,0,0,1-5.07-1,12.13,12.13,0,0,1-4.08-2.62,11.72,11.72,0,0,1-2.69-4,12.38,12.38,0,0,1-1-4.95,12.83,12.83,0,0,1,1-5.09,13,13,0,0,1,2.81-4.15,13.32,13.32,0,0,1,4.19-2.79A13,13,0,0,1,190.26,15.65Zm3.14,5.68a8.25,8.25,0,0,0-1-3.81,2.47,2.47,0,0,0-2.23-1.19,3.32,3.32,0,0,0-3.07,2.35,17.49,17.49,0,0,0-1,6.82h7.46V24.1q0-.59,0-1t-.05-.85Q193.46,21.81,193.41,21.33Z"/><path class="cls-1" d="M216.13,16.91a5.2,5.2,0,0,0-2.44-.67,3.34,3.34,0,0,0-2.39,1,3.07,3.07,0,0,0-1,2.32q0,2.91,4.62,4.4l3.3,1.07a14.12,14.12,0,0,1,5.61,3,5.93,5.93,0,0,1,1.75,4.36,7.77,7.77,0,0,1-.81,3.52,8.31,8.31,0,0,1-2.23,2.8,10.13,10.13,0,0,1-3.41,1.82,13.46,13.46,0,0,1-4.3.67q-.69,0-1.35-.05a12.49,12.49,0,0,1-1.42-.19q-.79-.11-1.71-.33T208.17,40l-1.32-.38-.94-.28q-.45-.15-.86-.31l-1-.38L203.56,29h.49a34.59,34.59,0,0,0,2.54,4.81,22.31,22.31,0,0,0,2.91,3.67,13,13,0,0,0,3.1,2.3,6.94,6.94,0,0,0,3.15.81,3.45,3.45,0,0,0,2.56-1,3.41,3.41,0,0,0,1-2.53,3.61,3.61,0,0,0-1-2.63,9.37,9.37,0,0,0-3.58-1.9l-2.37-.82a18.14,18.14,0,0,1-6.65-3.51,6.14,6.14,0,0,1-2-4.59,6.51,6.51,0,0,1,.81-3.18,8.43,8.43,0,0,1,2.18-2.53A10.61,10.61,0,0,1,210,16.27a13.29,13.29,0,0,1,4.12-.61A25.47,25.47,0,0,1,218,16,34.17,34.17,0,0,1,222.71,17l.5,8h-.5a18.36,18.36,0,0,0-1.84-3.5,17.58,17.58,0,0,0-2.28-2.77A10.37,10.37,0,0,0,216.13,16.91Z"/><path class="cls-1" d="M239.08,16.91a5.2,5.2,0,0,0-2.44-.67,3.34,3.34,0,0,0-2.39,1,3.07,3.07,0,0,0-1,2.32q0,2.91,4.62,4.4l3.3,1.07a14.12,14.12,0,0,1,5.61,3,5.93,5.93,0,0,1,1.75,4.36,7.77,7.77,0,0,1-.81,3.52,8.31,8.31,0,0,1-2.23,2.8,10.13,10.13,0,0,1-3.41,1.82,13.46,13.46,0,0,1-4.3.67q-.69,0-1.35-.05a12.5,12.5,0,0,1-1.42-.19q-.79-.11-1.71-.33T231.12,40l-1.32-.38-.94-.28q-.45-.15-.86-.31l-1-.38L226.51,29H227a34.59,34.59,0,0,0,2.54,4.81,22.32,22.32,0,0,0,2.91,3.67,13,13,0,0,0,3.1,2.3,6.94,6.94,0,0,0,3.15.81,3.45,3.45,0,0,0,2.56-1,3.41,3.41,0,0,0,1-2.53,3.61,3.61,0,0,0-1-2.63,9.37,9.37,0,0,0-3.58-1.9l-2.37-.82a18.14,18.14,0,0,1-6.65-3.51,6.14,6.14,0,0,1-2-4.59,6.51,6.51,0,0,1,.81-3.18,8.43,8.43,0,0,1,2.18-2.53,10.61,10.61,0,0,1,3.29-1.66,13.29,13.29,0,0,1,4.12-.61A25.47,25.47,0,0,1,241,16,34.17,34.17,0,0,1,245.66,17l.5,8h-.5a18.36,18.36,0,0,0-1.84-3.5,17.58,17.58,0,0,0-2.28-2.77A10.37,10.37,0,0,0,239.08,16.91Z"/></svg>