<svg version="1.1" id="nexity-logo" xmlns="http://www.w3.org/2000/svg" x="0px" y="0px" viewBox="-84 208.7 425.2 425.2">
<g>
    <path fill="rgb(210,34,56)" d="M137.6,632.7c140.8,0,202.5-90.6,202.5-204v-14.5c0-119.4-61.7-204.5-202.5-204.5h-17.9
    c-140.8,0-202.5,84.6-202.5,204.5v14.5c0,113.4,61.7,204,202.5,204H137.6z"/>
    <polygon fill="white" points="136.5,418.6 163.9,380.4 148.5,380.4 129.6,407.3 110.2,380.4 94.8,380.4
        122.2,418.6 93.8,456.5 102.7,456.5 109.6,456.5 129.6,429.1 149.5,456.5 156,456.5 164.9,456.5 				"/>
    <path fill="white" d="M72.8,423.1c10.9-1.9,16.4-7.9,19-12.4c1.9-4,2.5-7.5,2.5-9c0-0.4,0-0.4,0-1c0-7-4-13-10.5-17.5
        c-6-4-13.9-6-22.4-6s-16,1.9-22.4,6c-7,4.5-10.5,12.4-10.5,19v31.4c0,7,4,13.9,10.5,18.4c6,4,13.9,6,22.4,6s16-1.9,22.4-6
        c4.5-3,7.9-6.4,9.4-10.9l1.5-4.5l-13,0.4l-1,1.9c-0.4,1.5-1.9,2.5-4,4c-4,2.5-9.4,4-14.9,4c-6,0-11.5-1.5-14.9-4
        c-1.5-1-3-2.5-4-3.4c-1-1.9-1-4.5-1-5.5v-7.9C41,426.1,54.9,425.7,72.8,423.1z M41,416.7v-13c0-1.5,0.4-5.5,1.5-7.5
        c1-1.5,1.9-3,3.4-4c4-2.5,9.4-4,14.9-4c6,0,11.5,1.5,14.9,4c1.5,1,3,2.5,3.4,3.4c0,0,3.4,5.5,0,12.4c-0.4,1.5-1.5,2.5-3,3.4
        c-2.5,1.5-6.4,1.9-6.4,1.9C57.5,415.7,41,416.7,41,416.7z"/>
    <path fill="white" d="M8.1,383.8c-6-4-13.9-6-22.4-6c-22.4,0-32.9,9.4-32.9,9.4v47.2v21.8h13v-62.2
        c7.5-5.5,19.9-4.9,19.9-4.9c6,0,11.5,1.5,14.9,4c1.5,1,2.5,2.5,3.4,4s1.5,4.5,1.5,6V456h13v-21.8v-31.8
        C18.6,395.8,15.2,388.3,8.1,383.8z"/>
    <path fill="white" d="M231.1,383.4h-16l0,0v-20.9l-10.5,4.5c0,0-2.5,1-2.5,3.4v17.9v68.2h3.4h9.4v-62.2h16v-10.9
        H231.1z"/>
    <path fill="white" d="M184.4,390.8L184.4,390.8v-12.4l-10.5,4.5c0,0-2.5,1-2.5,3.4v9.4v60.7h3.4h9.4v-54.7v-10.9
        H184.4z"/>
    <path fill="white" d="M258.9,419.7c-3,0-5.5-0.4-6.4-1c-1.9-1-2.5-1.9-3-3c0-0.4-0.4-1-0.4-1.5v-0.4v-30.3h-10.9
        l0,0v30.8c0,0.4,0,4.5,3,8.5c1.5,1.9,4,4,7,5.5c3,1.5,6.4,1.9,10.9,1.9l0,0c0,0,9,0.4,29.3-4v11.5l0,0l0,0c0,0.4,0,2.5-1.9,4.5
        c-1,1-2.5,1.9-5.5,3c-2.5,1-6.4,1.5-12,1.5c-8.5,0-14.5-1.5-18.4-2.5c-1.9-0.4-3-1-4-1.5c-0.4,0-0.4-0.4-1-0.4l0,0l0,0l-1,1.9
        l-4.9,7c1,0.4,9.4,6.4,28.8,6.4l0,0c6.4,0,11.5-1,15.4-2.5c6-1.9,10.5-6,12.4-9.4c1.9-3.4,2.5-7,2.5-8.5v-0.4v-57.2h-10.9v35.9
        C287.8,416.3,275.4,419.7,258.9,419.7z"/>
</g>
</svg>